<svg width="200" height="200" viewBox="0 0 200 200" fill="none" xmlns="http://www.w3.org/2000/svg">
<path d="M200 0H0V200H200V0Z" fill="#940028"/>
<path fill-rule="evenodd" clip-rule="evenodd" d="M78.1479 173.382C76.7886 179.404 72.3553 183.82 64.4442 183.82C54.2941 183.82 49.3904 176.317 49.3904 166.861C49.3904 157.757 54.3904 149.572 64.7238 149.572C73.0756 149.572 77.2775 154.531 78.1312 160.1H72.009C71.159 157.169 69.2016 154.544 64.5164 154.544C58.2201 154.544 55.7349 160.346 55.7349 166.641C55.7349 172.582 57.9756 178.843 64.7053 178.843C69.4571 178.843 71.1701 175.763 71.9941 173.378L78.1479 173.382ZM22.9497 150.054V169.972C22.9497 176.872 26.5164 178.846 30.2627 178.846C34.5941 178.846 37.4441 176.587 37.4441 169.972V150.054H43.5812V169.659C43.5812 180.85 37.2849 183.82 30.1682 183.82C22.9923 183.82 16.7979 180.672 16.7979 169.856V150.054H22.9497ZM90.0683 168.587H105.896V163.417H90.0683V155.239H106.613V150.054H84.1109V183.376H106.759L107.5 178.191H90.0683V168.587ZM141.357 170.289C141.357 164.433 141.437 158.089 141.579 154.413H141.372C140.019 160.182 136.596 170.86 133.468 180.619L132.877 182.461L132.587 183.369H127.305C126.719 181.309 126.05 178.987 125.35 176.558C123.02 168.475 120.344 159.191 119.233 154.331H119.039C119.309 158.22 119.437 165.257 119.437 170.972V183.369H113.809V150.054H122.927C125.872 159.313 129.3 171.067 130.335 175.794H130.398C131.185 171.817 135.379 159.128 138.483 150.054H147.289V183.369H141.363L141.357 170.289ZM158.553 183.369L161.431 174.885H173.735L176.74 183.369H183.198L171.44 150.054H163.787L152.515 183.369H158.553ZM172.094 168.927L172.357 169.7H162.796L163.096 168.76C165.043 162.675 166.642 157.674 167.407 154.7H167.45C168.185 157.434 169.659 161.768 172.094 168.927Z" fill="white"/>
<path fill-rule="evenodd" clip-rule="evenodd" d="M68.6648 127.254C68.6648 126.187 67.7555 125.854 66.6611 125.481C65.3518 125.018 64.4296 124.337 64.4296 123.041C64.4296 121.665 65.4981 120.843 67.2351 120.843C68.3037 120.843 68.9018 121.011 69.2926 121.165C69.5185 121.267 69.5463 121.318 69.5055 121.602L69.4259 122.167C69.4 122.193 69.3653 122.209 69.3284 122.211C69.2915 122.214 69.255 122.202 69.2259 122.18C68.8648 121.641 68.1703 121.293 67.2222 121.293C66.1111 121.293 65.524 121.833 65.524 122.718C65.524 123.707 66.2463 124.093 67.2611 124.454C68.7425 124.967 69.7463 125.531 69.7463 126.894C69.7463 128.539 68.3833 129.335 66.674 129.335C65.6592 129.335 64.924 129.18 64.5092 128.974C64.2814 128.859 64.2814 128.833 64.2963 128.55L64.3351 127.857C64.3665 127.835 64.404 127.823 64.4425 127.823C64.481 127.823 64.5186 127.835 64.55 127.857C64.9203 128.413 65.6722 128.885 66.687 128.885C67.9963 128.889 68.6648 128.23 68.6648 127.254ZM22.3814 121.022C22.3277 121.022 22.3147 121.072 22.3425 121.111C22.4759 121.318 22.6351 121.852 22.6351 122.796V126.483C22.6351 127.959 21.7944 128.667 20.2703 128.667C18.6944 128.667 18.0925 127.831 18.0925 126.611V122.778C18.0925 121.92 18.1592 121.317 18.3073 121.111C18.3462 121.059 18.3462 121.022 18.2536 121.022H16.7573C16.6629 121.022 16.6629 121.059 16.7036 121.111C16.8499 121.313 16.9314 121.917 16.9314 122.778V126.559C16.9314 127.794 17.4259 129.337 20.1647 129.337C22.3555 129.337 23.1962 128.065 23.1962 126.498V122.794C23.1962 121.868 23.3295 121.33 23.4777 121.111C23.5166 121.072 23.4907 121.022 23.4647 121.022H22.3814ZM25.9975 121.541C26.0882 121.644 26.1673 121.735 26.2018 121.769V127.382C26.2018 128.307 26.0555 128.83 25.9073 129.048C25.8685 129.1 25.8944 129.15 25.9351 129.15H27.0166C27.0703 129.15 27.0703 129.1 27.0444 129.048C26.9092 128.863 26.7629 128.32 26.7629 127.382V122.424L32.161 129.143C32.2989 129.191 32.4486 129.195 32.5888 129.154V122.796C32.5888 121.87 32.7221 121.332 32.8684 121.113C32.8773 121.107 32.8841 121.099 32.8878 121.089C32.8915 121.08 32.8919 121.069 32.889 121.059C32.8875 121.054 32.8853 121.049 32.8823 121.045L32.8802 121.042L32.877 121.038C32.8753 121.037 32.8735 121.035 32.8716 121.034C32.8632 121.027 32.853 121.024 32.8425 121.024H31.7592C31.7055 121.024 31.7055 121.074 31.7333 121.113C31.8666 121.315 32.0129 121.857 32.0129 122.796V127.137L27.2314 121.139C27.1499 121.035 27.111 121.024 26.9499 121.024H25.6407L25.6375 121.024C25.6358 121.024 25.634 121.024 25.6322 121.024L25.628 121.025L25.6258 121.025C25.6202 121.026 25.6149 121.028 25.61 121.031C25.6048 121.034 25.6003 121.038 25.5965 121.042C25.5934 121.046 25.5909 121.05 25.5889 121.054C25.5844 121.064 25.5831 121.075 25.585 121.085C25.587 121.096 25.5922 121.106 25.5999 121.113C25.6592 121.154 25.8444 121.366 25.9972 121.54L25.9975 121.541ZM36.7444 127.394C36.7444 128.255 36.824 128.859 36.9703 129.061C37.011 129.113 37.011 129.163 36.9166 129.163H35.4074C35.3148 129.163 35.3148 129.113 35.3537 129.061C35.5018 128.855 35.5814 128.265 35.5814 127.394V122.778C35.5814 121.917 35.5018 121.313 35.3537 121.111C35.3148 121.059 35.3148 121.022 35.4074 121.022H36.9166C37.011 121.022 37.011 121.059 36.9703 121.111C36.824 121.317 36.7444 121.92 36.7444 122.778V127.394ZM42.4537 129.193H43.0407L45.6463 123.041C46.1278 121.922 46.4611 121.37 46.7018 121.113C46.7555 121.074 46.7426 121.024 46.6759 121.024H45.5C45.4203 121.024 45.3926 121.061 45.4055 121.113C45.4722 121.306 45.3518 122.089 44.9648 123.041L43.0685 127.754L41.0648 123.065C40.6296 122.039 40.4555 121.446 40.5092 121.113C40.5092 121.061 40.5092 121.024 40.4148 121.024H38.8926C38.8259 121.024 38.7981 121.074 38.8389 121.113C39.082 121.395 39.367 122.06 39.6746 122.778L39.7452 122.942L39.8148 123.104L42.4537 129.193ZM53.2666 121.024C53.4815 121.024 53.5203 121.035 53.5203 121.243L53.5352 122.013C53.5114 122.029 53.4834 122.038 53.4546 122.038C53.4258 122.038 53.3978 122.029 53.374 122.013C53.0944 121.73 52.4129 121.435 51.7574 121.435H50V124.815H51.7092C52.117 124.815 52.5099 124.697 52.753 124.624L52.7541 124.624C52.8416 124.598 52.9096 124.577 52.9518 124.57C52.9548 124.57 52.9579 124.57 52.9609 124.57L52.9642 124.57C52.9671 124.57 52.97 124.57 52.9729 124.571L52.979 124.572C52.9821 124.573 52.9853 124.574 52.9883 124.575C52.9925 124.577 52.9965 124.579 53.0003 124.581C53.0071 124.585 53.0132 124.59 53.0185 124.596V125.47C53.0103 125.48 52.9999 125.487 52.9883 125.491C52.9767 125.496 52.9642 125.498 52.9518 125.496C52.552 125.354 52.1332 125.271 51.7092 125.252H50V128.309C50 128.694 50.0129 128.72 50.3611 128.72H51.7092C52.4554 128.692 53.1687 128.406 53.7277 127.911C53.8203 127.846 53.9407 127.872 53.9277 127.935L53.6611 128.937C53.6533 128.998 53.6231 129.055 53.5762 129.095C53.5294 129.135 53.4692 129.157 53.4074 129.155H48.6722C48.5778 129.155 48.5778 129.105 48.6185 129.054C48.7648 128.848 48.8444 128.257 48.8444 127.387V122.778C48.8444 121.917 48.7648 121.313 48.6185 121.111C48.5778 121.059 48.5778 121.022 48.6722 121.022L53.2666 121.024ZM61.2258 128.911C61.5973 129.117 62.0159 129.223 62.4407 129.218C62.5706 129.216 62.7 129.202 62.8277 129.178C62.8944 129.152 62.8944 129.102 62.8018 129.05C62.3333 128.78 61.7499 128.254 60.824 127.046C60.2907 126.326 59.9166 125.761 59.661 125.337C60.2481 125.105 61.3592 124.528 61.3592 123.154C61.3592 121.265 59.461 121.022 58.4869 121.022H55.8407C55.7481 121.022 55.7481 121.059 55.7869 121.111C55.9351 121.313 56.0147 121.917 56.0147 122.778V127.398C56.0147 128.268 55.9351 128.859 55.7869 129.065C55.7481 129.117 55.7481 129.167 55.8407 129.167H57.3369C57.4314 129.167 57.4314 129.117 57.3907 129.065C57.2444 128.863 57.1777 128.259 57.1777 127.398V125.639C57.6264 125.669 58.0766 125.674 58.5258 125.652L58.5712 125.726L58.5721 125.727L58.5732 125.729L58.5741 125.731L58.5753 125.733L58.5763 125.734C58.8816 126.232 59.2038 126.757 59.6092 127.318C59.9962 127.857 60.5981 128.563 61.2258 128.911ZM58.4999 125.237C58.0184 125.25 57.4314 125.237 57.1777 125.211V121.435H58.3925C59.1629 121.435 60.0888 121.718 60.0888 123.22C60.0888 124.722 59.4073 125.224 58.4999 125.237ZM73.4221 129.061C73.2758 128.859 73.1962 128.255 73.1962 127.394L73.1888 122.778C73.1888 121.92 73.2684 121.317 73.4147 121.111C73.4555 121.059 73.4555 121.022 73.361 121.022H71.8518C71.7592 121.022 71.7592 121.059 71.798 121.111C71.9462 121.313 72.0258 121.917 72.0258 122.778V127.394C72.0258 128.265 71.9462 128.855 71.798 129.061C71.7592 129.113 71.7592 129.163 71.8518 129.163H73.3684C73.4629 129.163 73.4629 129.113 73.4221 129.061ZM75.9721 129.052C76.1203 128.846 76.1999 128.255 76.1999 127.385V122.778C76.1999 121.917 76.1203 121.313 75.9721 121.111C75.9332 121.059 75.9332 121.022 76.0258 121.022H79.0851C82.011 121.022 83.2536 122.82 83.2536 124.889C83.2536 127.226 81.9703 129.148 79.0851 129.148H76.0258C75.9258 129.154 75.9258 129.104 75.9721 129.052ZM77.6684 128.718H79.0184C81.1703 128.718 81.9036 126.983 81.9036 124.902C81.9036 123.168 81.1962 121.435 79.0055 121.435H77.3629V128.357C77.3629 128.628 77.3758 128.718 77.6684 128.718ZM84.1796 129.154H85.3555C85.4629 129.154 85.4759 129.104 85.4685 129.052C85.3889 128.859 85.4944 128.102 85.9092 127.137L86.2963 126.239H89.2981L89.6203 127.074C89.9537 127.933 90.2333 128.693 90.1944 129.026C90.1944 129.117 90.2074 129.154 90.3148 129.154H91.8111C91.8907 129.154 91.9037 129.078 91.8648 129.026C91.5833 128.68 91.2092 127.909 90.8759 127.074L88.4444 120.985H87.9629L85.2222 127.137C84.7407 128.23 84.3944 128.807 84.1537 129.052C84.087 129.104 84.1 129.154 84.1796 129.154ZM89.1389 125.82H86.4666L87.8555 122.544L89.1389 125.82ZM93.7944 129.052C93.9426 128.846 94.0222 128.255 94.0222 127.385V122.778C94.0222 121.917 93.9426 121.313 93.7944 121.111C93.7555 121.059 93.7555 121.022 93.8481 121.022H96.9074C99.8333 121.022 101.076 122.82 101.076 124.889C101.076 127.226 99.7925 129.148 96.9074 129.148H93.8481C93.7555 129.154 93.7555 129.104 93.7944 129.052ZM95.4907 128.718H96.8407C98.9926 128.718 99.7259 126.983 99.7259 124.902C99.7259 123.168 99.0185 121.435 96.8278 121.435H95.1852V128.357C95.1852 128.628 95.1981 128.718 95.4907 128.718ZM17.037 139.674C17.037 140.544 16.9573 141.135 16.811 141.341C16.7703 141.392 16.7703 141.442 16.8648 141.431H19.924C22.8092 141.431 24.0925 139.511 24.0925 137.172C24.0925 135.105 22.8499 133.305 19.924 133.305H16.8648C16.7703 133.305 16.7703 133.344 16.811 133.396C16.9573 133.598 17.037 134.202 17.037 135.063V139.674ZM19.8573 141.005H18.5073C18.2129 141.005 18.1999 140.926 18.1999 140.646V133.722H19.8425C22.0351 133.722 22.7425 135.457 22.7425 137.191C22.7425 139.272 22.0073 141.005 19.8573 141.005ZM30.8888 133.311C31.1018 133.311 31.1425 133.324 31.1425 133.53L31.1555 134.302C31.1318 134.317 31.1041 134.325 31.0758 134.325C31.0476 134.325 31.0199 134.317 30.9962 134.302C30.7147 134.018 30.0332 133.722 29.3795 133.722H27.6295V137.102H29.3388C29.7453 137.102 30.1359 136.985 30.3794 136.912C30.4687 136.885 30.5382 136.864 30.5814 136.857C30.5938 136.856 30.6063 136.858 30.6179 136.862C30.6295 136.867 30.6398 136.874 30.6481 136.883V137.755C30.6452 137.759 30.6422 137.762 30.6389 137.764C30.6326 137.769 30.6255 137.774 30.6179 137.777C30.6112 137.779 30.6042 137.781 30.5971 137.781C30.5919 137.782 30.5866 137.782 30.5814 137.781C30.1813 137.64 29.7626 137.559 29.3388 137.539H27.6295V140.594C27.6295 140.981 27.6425 141.005 27.9888 141.005H29.3388C30.0845 140.978 30.7974 140.692 31.3555 140.196C31.4499 140.133 31.5703 140.159 31.5573 140.222L31.2962 141.224C31.288 141.285 31.2577 141.341 31.2109 141.382C31.1642 141.422 31.1042 141.444 31.0425 141.443H26.2962C26.2036 141.443 26.2036 141.393 26.2425 141.341C26.3906 141.135 26.4703 140.544 26.4703 139.674V135.063C26.4703 134.202 26.3906 133.598 26.2425 133.396C26.2036 133.344 26.2036 133.305 26.2962 133.305L30.8888 133.311ZM33.4092 141.341C33.3684 141.393 33.3684 141.443 33.4629 141.443L38.0481 141.433C38.1121 141.438 38.1754 141.418 38.2251 141.377C38.2747 141.337 38.3068 141.278 38.3147 141.215L38.5832 140.213C38.5962 140.15 38.4629 140.124 38.3814 140.187C37.8161 140.684 37.0964 140.97 36.3444 140.996H35.1684C34.811 140.996 34.7981 140.972 34.7981 140.585V135.063C34.7981 134.206 34.8647 133.602 35.0129 133.396C35.0518 133.344 35.0518 133.305 34.9592 133.305H33.4629C33.3684 133.305 33.3684 133.344 33.4092 133.396C33.5555 133.598 33.6351 134.202 33.6351 135.063V139.674C33.6351 140.544 33.5555 141.135 33.4092 141.341ZM52.4314 140.8C51.9369 141.237 51.1758 141.622 49.7999 141.622C47.6499 141.622 45.8462 140.274 45.8462 137.448C45.8462 134.661 47.6221 133.132 49.8943 133.132C51.0832 133.132 51.8573 133.337 52.2851 133.53C52.498 133.646 52.5518 133.685 52.4851 133.967L52.3518 134.583C52.3259 134.61 52.2911 134.626 52.2542 134.628C52.2173 134.631 52.1808 134.619 52.1518 134.596C51.8443 134.172 51.1758 133.582 49.8943 133.582C48.1036 133.582 47.1943 135.063 47.1943 137.448C47.1943 139.833 48.2499 141.006 50.0666 141.006C51.2036 141.006 51.9184 140.672 52.4314 140.3C52.4981 140.248 52.4981 140.75 52.4314 140.8ZM59.2129 133.53C59.2129 133.324 59.1721 133.311 58.9592 133.311L54.3629 133.305C54.2703 133.305 54.2703 133.344 54.3092 133.396C54.4573 133.598 54.537 134.202 54.537 135.063V139.674C54.537 140.544 54.4573 141.135 54.3092 141.341C54.2703 141.393 54.2703 141.443 54.3629 141.443H59.1036C59.1654 141.444 59.2253 141.422 59.2721 141.382C59.3188 141.341 59.3492 141.285 59.3573 141.224L59.6259 140.222C59.6388 140.159 59.5184 140.133 59.4259 140.196C58.867 140.692 58.1536 140.978 57.4073 141.005H56.0684C55.711 141.005 55.6981 140.981 55.6981 140.594V137.539H57.4073C57.8312 137.558 58.2499 137.64 58.6499 137.781C58.6623 137.783 58.6748 137.781 58.6864 137.777C58.698 137.772 58.7084 137.765 58.7166 137.755V136.883C58.7084 136.874 58.698 136.867 58.6864 136.862C58.6802 136.86 58.6738 136.858 58.6672 136.857C58.6637 136.857 58.6602 136.857 58.6567 136.857C58.6544 136.857 58.6522 136.857 58.6499 136.857C58.6078 136.864 58.5397 136.885 58.4522 136.911L58.4511 136.911C58.208 136.984 57.8151 137.102 57.4073 137.102H55.6999V133.722H57.4499C58.1036 133.722 58.7851 134.018 59.0666 134.302C59.1203 134.339 59.2129 134.326 59.2259 134.302L59.2129 133.53ZM61.7332 139.67L61.9184 134.096C61.8077 133.844 61.6591 133.61 61.4777 133.402C61.4369 133.363 61.4518 133.311 61.5184 133.311H62.761C62.9462 133.311 62.974 133.311 63.0684 133.496L66.0073 139.856L68.6388 133.857C68.8925 133.317 68.9184 133.302 69.2258 133.302H70.1351C70.2147 133.302 70.2277 133.354 70.1888 133.406C69.9888 133.676 69.9481 134.394 69.974 135.257L70.1073 139.676C70.1351 140.665 70.2018 141.141 70.3758 141.343C70.4147 141.394 70.4147 141.444 70.3221 141.444H68.7851C68.6925 141.444 68.6925 141.394 68.7314 141.343C68.8795 141.137 68.9851 140.674 68.9592 139.676L68.8388 134.706L65.8592 141.409C65.7979 141.435 65.7321 141.448 65.6656 141.448C65.5992 141.448 65.5334 141.435 65.4721 141.409L62.4258 134.781L62.3055 139.663C62.2795 140.576 62.3999 141.144 62.5055 141.33C62.5332 141.393 62.5332 141.431 62.4795 141.431H61.4814C61.4277 141.431 61.4406 141.393 61.4684 141.33C61.574 141.148 61.7073 140.556 61.7332 139.67ZM72.3759 141.443H73.5518C73.6592 141.443 73.6722 141.393 73.6592 141.341C73.5796 141.148 73.6851 140.389 74.0999 139.426L74.487 138.528H77.5018L77.8221 139.363C78.1573 140.222 78.437 140.981 78.3981 141.315C78.3981 141.404 78.411 141.443 78.5184 141.443H80.0092C80.0888 141.443 80.1018 141.367 80.061 141.315C79.7814 140.969 79.4073 140.196 79.074 139.363L76.6388 133.274H76.1573L73.4184 139.426C72.937 140.518 72.5907 141.096 72.3499 141.341C72.2833 141.393 72.2962 141.443 72.3759 141.443ZM77.3333 138.109H74.6629L76.0499 134.833L77.3333 138.109Z" fill="#CCCCCC"/>
<path fill-rule="evenodd" clip-rule="evenodd" d="M183.199 16.5741H129.204V17.0806C129.204 18.436 129.204 19.7458 129.215 21.0556C129.231 36.3815 129.239 51.7062 129.239 67.0296C129.239 68.7278 129.704 70.2926 130.849 71.5278C132.217 73.0037 133.63 74.4722 135.202 75.7185C142.838 81.7611 151.53 84.1389 161.171 82.8204C169.189 81.7241 175.921 78.0648 181.412 72.1389C182.273 71.2093 182.899 70.1037 183.013 68.8426C183.165 67.1722 183.199 65.487 183.199 63.8093V21.2519V16.5741ZM131.099 21.5111H156.195H181.137C182.143 21.5111 182.143 21.513 182.143 22.5352C182.125 37.3426 182.13 52.15 182.158 66.9574C182.162 68.9963 181.488 70.6685 180.063 72.0963C172.739 79.4444 163.889 82.8426 153.563 82.0259C144.963 81.3426 137.758 77.6222 131.923 71.2648C130.85 70.1507 130.252 68.6632 130.256 67.1167C130.263 52.1537 130.257 37.1907 130.238 22.2278C130.236 21.5111 130.586 21.5111 131.099 21.5111ZM179.097 50.8981C173.01 51.7425 167.694 51.0153 163.147 48.7166C167.658 49.7845 172.25 49.7085 176.923 48.4888C177.916 48.2338 178.789 47.6393 179.39 46.8083C179.991 45.9772 180.282 44.9621 180.213 43.9388C180.174 43.3666 180.115 42.7462 180.028 42.0869C180.023 42.0465 180.007 42.0082 179.982 41.9761C179.957 41.9441 179.924 41.9195 179.885 41.905C179.847 41.8905 179.806 41.8867 179.766 41.894C179.726 41.9012 179.688 41.9193 179.658 41.9462C175.213 45.7079 170.306 47.3511 164.936 46.8758C169.557 46.4302 173.729 44.3839 177.454 40.7369C178.103 40.0954 178.54 39.2715 178.709 38.375C178.878 37.4785 178.769 36.5519 178.399 35.7184C178.065 34.9567 177.678 34.1586 177.237 33.324C177.216 33.2841 177.184 33.2515 177.144 33.2305C177.104 33.2095 177.058 33.201 177.014 33.2062C176.969 33.2114 176.926 33.2301 176.892 33.2597C176.858 33.2893 176.834 33.3285 176.823 33.3721C175.783 37.4351 172.844 40.9913 168.006 44.0406C172.562 40.5234 174.907 36.3604 175.043 31.5518C175.063 30.9377 174.955 30.3262 174.725 29.7562C174.496 29.1862 174.151 28.67 173.711 28.2407C172.157 26.7558 170.445 25.4438 168.608 24.3277C168.573 24.2971 168.527 24.2809 168.481 24.2823C168.434 24.2838 168.39 24.3028 168.356 24.3356C168.323 24.3683 168.303 24.4124 168.301 24.459C168.299 24.5056 168.315 24.5513 168.345 24.587C173.123 32.1999 168.584 41.2906 163.006 43.2555C163.006 43.2555 161.941 43.6018 161.297 43.611C160.91 43.2925 160.513 43.0018 160.167 42.761L160.074 42.7003L159.978 42.6381C159.021 42.0185 157.994 41.3534 157.85 40.374C157.5 38.0141 161.288 37.9824 162.258 37.9743C162.39 37.9732 162.469 37.9725 162.48 37.9666C160.694 35.1927 158.49 35.1594 156.112 35.1233C154.299 35.0959 152.384 35.0669 150.474 33.8203C150.78 35.5221 152.832 36.9184 154.097 37.1814C152.765 39.0221 151.623 41.6499 151.741 43.7518C151.317 43.7088 150.897 43.6389 150.482 43.5425C144.445 42.4684 138.963 32.6851 144.05 24.5795C144.079 24.5438 144.093 24.499 144.09 24.4537C144.087 24.4083 144.068 24.3655 144.035 24.3335C144.003 24.3014 143.96 24.2824 143.915 24.28C143.869 24.2775 143.825 24.2919 143.789 24.3203C141.951 25.4364 140.239 26.7484 138.684 28.2332C138.245 28.6632 137.9 29.1794 137.671 29.7493C137.442 30.3192 137.333 30.9304 137.352 31.5444C137.489 36.3592 139.835 40.5221 144.389 44.0332C139.549 40.9826 136.609 37.4264 135.571 33.3647C135.56 33.3209 135.536 33.2815 135.502 33.2517C135.468 33.2219 135.426 33.2032 135.381 33.1979C135.336 33.1927 135.291 33.2013 135.251 33.2225C135.211 33.2436 135.179 33.2765 135.158 33.3166C134.717 34.1511 134.329 34.9493 133.995 35.711C133.624 36.5445 133.516 37.4711 133.685 38.3674C133.854 39.2638 134.291 40.0877 134.939 40.7295C138.668 44.374 142.84 46.4203 147.458 46.8684C142.087 47.3425 137.181 45.6993 132.737 41.9388C132.707 41.9119 132.669 41.8938 132.629 41.8866C132.589 41.8793 132.548 41.8831 132.51 41.8976C132.472 41.9121 132.438 41.9367 132.413 41.9687C132.388 42.0008 132.372 42.0391 132.367 42.0795C132.286 42.7462 132.224 43.3635 132.182 43.9314C132.114 44.9548 132.406 45.9698 133.007 46.8007C133.608 47.6316 134.481 48.2262 135.474 48.4814C140.147 49.7024 144.739 49.7783 149.25 48.7092C144.702 51.0079 139.386 51.7351 133.3 50.8906C133.264 50.8854 133.226 50.8894 133.192 50.9021C133.157 50.9149 133.126 50.936 133.101 50.9637C133.094 50.972 133.087 50.9808 133.081 50.99C133.067 51.0116 133.057 51.0356 133.051 51.0609C133.042 51.0969 133.043 51.1345 133.052 51.1703C133.074 51.2518 133.099 51.3314 133.121 51.411C133.408 52.4152 134.042 53.2854 134.909 53.8679C135.776 54.4504 136.821 54.7077 137.86 54.5943C142.341 54.14 146.666 52.6987 150.524 50.374C148.031 53.1419 143.165 55.5227 135.926 57.5166C135.724 57.5888 135.741 57.6629 135.795 57.8443L135.806 57.8647C136.368 58.7829 137.247 59.4633 138.276 59.7769C139.306 60.0905 140.415 60.0157 141.393 59.5666C145.765 57.5406 149.208 55.0166 151.724 51.9943C150.461 54.9573 147.796 57.7882 143.728 60.4869C143.707 60.5006 143.69 60.5212 143.682 60.5454C143.674 60.5695 143.675 60.5957 143.684 60.6195C143.692 60.6434 143.709 60.6635 143.731 60.6764C143.753 60.6894 143.779 60.6944 143.804 60.6906C147.032 60.2869 150.071 58.4289 152.921 55.1166L153.376 56.1314C153.444 56.2824 153.472 56.4484 153.456 56.6132C153.441 56.778 153.384 56.9361 153.289 57.0721L146.993 66.2129C146.987 66.2218 146.982 66.2313 146.978 66.2413C146.974 66.251 146.971 66.2611 146.969 66.2715C146.966 66.2926 146.967 66.3142 146.973 66.3347C146.979 66.3553 146.989 66.3743 147.003 66.3903C147.01 66.3978 147.017 66.4046 147.025 66.4105C147.034 66.4174 147.044 66.4231 147.054 66.4277L147.074 66.4369C147.568 66.6534 148.123 66.6834 148.636 66.5212C149.15 66.3591 149.588 66.0159 149.867 65.5555L153.497 59.5499L150.067 67.3592C150.059 67.3781 150.054 67.3986 150.054 67.4194C150.055 67.4402 150.059 67.4606 150.068 67.4794C150.077 67.4982 150.09 67.5149 150.105 67.5284C150.115 67.5368 150.126 67.5439 150.138 67.5493C150.145 67.5525 150.152 67.5552 150.16 67.5573C150.361 67.6147 150.563 67.6703 150.767 67.7221C151.329 67.8663 151.924 67.7854 152.427 67.4965C152.93 67.2076 153.3 66.7337 153.458 66.1758L155.371 59.5406L154.445 68.3592C154.445 69.6703 156.208 71.0555 156.208 71.0555C156.208 71.0555 157.973 69.6147 157.973 68.3592L157.332 62.3055L157.037 59.5406L158.941 66.1388C159.099 66.6859 159.461 67.1519 159.951 67.4414C160.442 67.7309 161.025 67.8221 161.58 67.6962L162.241 67.5425C162.262 67.5377 162.281 67.5285 162.297 67.5156C162.314 67.5026 162.327 67.4861 162.336 67.4674C162.346 67.4487 162.351 67.4281 162.351 67.4071C162.352 67.3978 162.351 67.3884 162.349 67.3792C162.349 67.3759 162.348 67.3725 162.347 67.3692C162.346 67.3659 162.345 67.3626 162.344 67.3594C162.343 67.3549 162.341 67.3505 162.339 67.3462L161.336 65.0592L158.911 59.5406L162.121 64.8499L162.541 65.5462C162.819 66.0096 163.257 66.3556 163.772 66.5196C164.287 66.6836 164.844 66.6542 165.339 66.4369L165.36 66.4277C165.379 66.4187 165.396 66.4057 165.41 66.3895C165.412 66.3864 165.415 66.3832 165.417 66.3798L165.42 66.3758C165.422 66.3732 165.423 66.3706 165.425 66.3679L165.429 66.3601C165.433 66.3517 165.436 66.343 165.439 66.334C165.445 66.3135 165.446 66.2921 165.442 66.2712C165.439 66.2503 165.431 66.2304 165.419 66.2129L159.113 57.0721C159.02 56.9358 158.963 56.7776 158.948 56.6129C158.933 56.4482 158.961 56.2823 159.028 56.1314L159.484 55.1166C159.61 55.2647 159.737 55.4073 159.865 55.548L159.96 55.6555L160.341 56.0647L160.374 56.098C160.497 56.2258 160.621 56.3518 160.745 56.4684L160.817 56.5425C160.952 56.674 161.086 56.8036 161.221 56.9295L161.243 56.9499L161.647 57.3203L161.684 57.3518C161.793 57.4486 161.904 57.5433 162.014 57.6375L162.113 57.7221C164.182 59.4184 166.343 60.4061 168.595 60.6851C168.62 60.6888 168.646 60.6838 168.668 60.6709C168.69 60.6579 168.706 60.6379 168.715 60.614C168.721 60.5997 168.723 60.5845 168.722 60.5694L168.722 60.5652C168.722 60.5617 168.721 60.5582 168.72 60.5548C168.72 60.5519 168.719 60.549 168.718 60.5462C168.718 60.544 168.717 60.5419 168.717 60.5398C168.708 60.5157 168.692 60.495 168.671 60.4814C166.313 58.9172 164.426 57.3085 163.012 55.6555C162.886 55.5073 162.763 55.361 162.641 55.2129L162.63 55.1981C162.512 55.0499 162.397 54.9018 162.286 54.7518C162.174 54.6036 162.067 54.4536 161.963 54.3036C161.912 54.2296 161.863 54.1551 161.814 54.0803C161.771 54.0129 161.727 53.9453 161.68 53.8777L161.641 53.8166C161.552 53.6777 161.467 53.5369 161.384 53.3962L161.367 53.3666C161.291 53.2369 161.219 53.1055 161.149 52.974L161.11 52.9018C161.039 52.7684 160.973 52.6351 160.908 52.5018C160.893 52.4721 160.878 52.4406 160.865 52.411L160.832 52.3404L160.792 52.2529L160.723 52.1036L160.68 52.0092V51.9981C160.823 52.1703 160.969 52.3388 161.119 52.5073L161.186 52.5832C161.323 52.7369 161.461 52.8888 161.604 53.0388L161.724 53.1666C161.856 53.3036 161.989 53.4406 162.124 53.5758L162.293 53.7406C162.399 53.8462 162.506 53.9481 162.615 54.0518L162.889 54.3055C162.905 54.3201 162.921 54.335 162.937 54.3498C162.964 54.3745 162.991 54.399 163.017 54.4221C165.196 56.39 167.85 58.103 170.98 59.561C171.96 60.0158 173.072 60.0948 174.106 59.7831C175.141 59.4714 176.024 58.7907 176.589 57.8703L176.602 57.8499L176.603 57.8467C176.653 57.6639 176.671 57.5939 176.471 57.5221C170.204 55.7937 165.714 53.7783 163 51.4758C162.964 51.4446 162.929 51.4137 162.893 51.3828C162.836 51.3331 162.78 51.2835 162.724 51.2332L162.693 51.2055C162.608 51.1295 162.526 51.0518 162.445 50.974L162.408 50.9258L162.407 50.9253C162.36 50.879 162.313 50.8335 162.267 50.7878C162.242 50.7623 162.216 50.7368 162.191 50.711L162.132 50.6518C162.054 50.5703 161.978 50.4906 161.904 50.4092L161.878 50.3814C162.076 50.4999 162.274 50.6166 162.473 50.7295C162.671 50.8425 162.826 50.9295 163.004 51.0258H163.019C166.566 52.956 170.46 54.1656 174.476 54.5851C175.529 54.7054 176.59 54.4492 177.471 53.8617C178.352 53.2742 178.997 52.3935 179.291 51.3758C179.299 51.3453 179.308 51.3147 179.317 51.284L179.335 51.2196C179.339 51.2026 179.344 51.1856 179.349 51.1684C179.357 51.1329 179.356 51.0958 179.347 51.0605C179.338 51.0251 179.32 50.9927 179.295 50.9659C179.27 50.9392 179.239 50.919 179.204 50.9072C179.17 50.8953 179.133 50.8922 179.097 50.8981ZM145.628 78.1759L145.676 76.8036C145.645 76.7372 145.605 76.675 145.558 76.6184C145.545 76.6055 145.558 76.5925 145.558 76.5925H145.982C146.03 76.5925 146.034 76.5925 146.056 76.6407L146.75 78.1629L147.365 76.7388C147.43 76.5981 147.443 76.5925 147.517 76.5925H147.852C147.873 76.5925 147.876 76.6055 147.865 76.6184C147.809 76.7684 147.789 76.9297 147.808 77.0888L147.843 78.1851C147.852 78.4407 147.873 78.5462 147.913 78.5944C147.923 78.6073 147.923 78.624 147.899 78.624H147.413C147.389 78.624 147.389 78.6073 147.395 78.5944C147.456 78.4671 147.477 78.3246 147.456 78.1851L147.424 76.987L146.712 78.6166C146.658 78.6296 146.602 78.6296 146.549 78.6166L145.819 77.0147L145.789 78.1814C145.777 78.3209 145.793 78.4616 145.838 78.5944C145.838 78.611 145.838 78.624 145.825 78.624H145.565C145.543 78.624 145.547 78.611 145.552 78.5944C145.604 78.4608 145.629 78.3189 145.628 78.1759ZM149.589 78.6666C149.84 78.6863 150.09 78.6117 150.289 78.4573C150.31 78.4388 150.31 78.2851 150.295 78.2795C150.124 78.4046 149.916 78.4697 149.704 78.4647C149.256 78.4647 149.019 78.1721 149.019 77.6018C149.019 77.0314 149.23 76.6758 149.654 76.6758C149.761 76.6731 149.867 76.6955 149.963 76.7411C150.06 76.7868 150.144 76.8545 150.21 76.9388C150.214 76.9418 150.219 76.9441 150.224 76.9456C150.228 76.9471 150.233 76.9479 150.238 76.9479C150.249 76.9479 150.259 76.9447 150.267 76.9388L150.306 76.7536C150.323 76.6832 150.31 76.6721 150.254 76.6444C150.054 76.5651 149.839 76.5291 149.624 76.5388C149.481 76.5294 149.338 76.5508 149.203 76.6017C149.069 76.6526 148.947 76.7317 148.846 76.8338C148.746 76.9358 148.668 77.0583 148.618 77.1931C148.569 77.3278 148.549 77.4716 148.56 77.6147C148.56 78.3166 149.012 78.6666 149.589 78.6666ZM150.926 78.1758L150.975 76.8036C150.942 76.7376 150.902 76.6755 150.856 76.6184C150.843 76.6055 150.845 76.5925 150.856 76.5925H151.278C151.326 76.5925 151.33 76.5925 151.352 76.6407L152.049 78.1629L152.663 76.7388C152.726 76.5981 152.739 76.5925 152.813 76.5925H153.15C153.169 76.5925 153.173 76.6055 153.163 76.6184C153.105 76.7679 153.085 76.9297 153.106 77.0888L153.141 78.1851C153.141 78.4407 153.169 78.5462 153.212 78.5944C153.212 78.6073 153.212 78.624 153.195 78.624H152.712C152.686 78.624 152.686 78.6073 152.691 78.5944C152.753 78.4674 152.774 78.3246 152.752 78.1851L152.721 76.987L152.01 78.6166C151.956 78.6296 151.899 78.6296 151.845 78.6166L151.115 77.0147L151.086 78.1814C151.074 78.3209 151.09 78.4613 151.134 78.5944C151.145 78.611 151.134 78.624 151.121 78.624H150.862C150.839 78.624 150.843 78.611 150.849 78.5944C150.9 78.4608 150.926 78.3189 150.926 78.1758ZM153.952 78.5889C153.941 78.6019 153.941 78.6186 153.967 78.6186L155.187 78.6112C155.204 78.6122 155.219 78.6071 155.232 78.5967C155.244 78.5864 155.252 78.5717 155.254 78.5556L155.328 78.2426C155.332 78.2297 155.293 78.2241 155.271 78.2426C155.133 78.3847 154.946 78.4693 154.749 78.4797H154.491C154.411 78.4797 154.402 78.4741 154.402 78.3778V77.026C154.39 76.8854 154.411 76.7439 154.463 76.613C154.473 76.6019 154.473 76.5871 154.445 76.5871H153.967C153.941 76.5871 153.941 76.6019 153.952 76.613C154.004 76.7441 154.025 76.8854 154.013 77.026V78.1797C154.025 78.319 154.004 78.4591 153.952 78.5889ZM156.852 77.3852L157.132 76.9612C157.273 76.75 157.308 76.6667 157.295 76.613C157.295 76.6019 157.295 76.5871 157.321 76.5871H157.669C157.689 76.5871 157.689 76.6019 157.669 76.613C157.542 76.7121 157.431 76.8294 157.339 76.9612L156.932 77.5167L157.406 78.2149C157.497 78.3477 157.599 78.4717 157.713 78.5852C157.726 78.5982 157.726 78.6149 157.713 78.6149H157.167C157.137 78.6149 157.137 78.6019 157.137 78.5852C157.106 78.4487 157.043 78.3216 156.952 78.2149L156.65 77.7778L156.315 78.2445C156.189 78.4186 156.154 78.5426 156.167 78.5908C156.168 78.5945 156.168 78.5985 156.167 78.6022C156.166 78.606 156.164 78.6094 156.162 78.6123C156.159 78.6152 156.156 78.6175 156.152 78.6189C156.149 78.6203 156.145 78.6208 156.141 78.6204H155.782C155.763 78.6204 155.763 78.6038 155.782 78.5908C155.903 78.4897 156.011 78.3733 156.102 78.2445L156.563 77.6389L156.111 76.9871C156.026 76.8538 155.928 76.7297 155.817 76.6167C155.808 76.6056 155.804 76.5908 155.83 76.5908H156.345C156.377 76.5908 156.378 76.5987 156.38 76.6131L156.38 76.6167C156.41 76.7535 156.474 76.8807 156.565 76.9871L156.852 77.3852ZM159.552 76.9612L159.275 77.3852L159.004 76.9889C158.912 76.8831 158.848 76.7557 158.819 76.6186L158.818 76.6124C158.816 76.5996 158.814 76.5926 158.784 76.5926H158.267C158.241 76.5926 158.245 76.6075 158.254 76.6186C158.365 76.7319 158.464 76.856 158.55 76.9889L158.989 77.6389L158.526 78.2445C158.435 78.3733 158.327 78.4897 158.206 78.5908C158.186 78.6037 158.186 78.6204 158.206 78.6204H158.565C158.569 78.621 158.573 78.6205 158.577 78.6191C158.578 78.6184 158.58 78.6176 158.581 78.6165L158.583 78.6154L158.584 78.6141L158.586 78.6124C158.587 78.611 158.588 78.6094 158.589 78.6077C158.589 78.6059 158.59 78.604 158.59 78.6021L158.591 78.5994V78.5975C158.591 78.5952 158.59 78.593 158.589 78.5908C158.599 78.462 158.651 78.3401 158.737 78.2445L159.075 77.7778L159.387 78.2149C159.477 78.3225 159.54 78.4492 159.573 78.5852C159.573 78.6019 159.573 78.6148 159.6 78.6148H160.136C160.149 78.6148 160.149 78.5982 160.136 78.5852C160.022 78.4717 159.919 78.3477 159.828 78.2149L159.354 77.5167L159.762 76.9612C159.854 76.8294 159.965 76.7121 160.091 76.613C160.11 76.6019 160.11 76.5871 160.091 76.5871H159.741C159.715 76.5871 159.715 76.6019 159.715 76.613C159.728 76.6667 159.693 76.75 159.552 76.9612ZM161.734 78.6278H161.482L160.834 77.1056C160.771 76.9334 160.69 76.7682 160.593 76.613C160.58 76.6001 160.593 76.5871 160.606 76.5871H161.097C161.126 76.5871 161.126 76.5963 161.126 76.613C161.13 76.7872 161.177 76.9578 161.263 77.1093L161.734 78.2204L162.176 77.0852C162.247 76.9355 162.281 76.7711 162.276 76.6056C162.276 76.5926 162.276 76.5797 162.302 76.5797H162.632C162.647 76.5797 162.65 76.5926 162.632 76.6056C162.516 76.7472 162.426 76.9083 162.367 77.0815L161.734 78.6278ZM163.728 78.5889C163.672 78.4602 163.65 78.3194 163.663 78.1797L163.658 77.026C163.645 76.8851 163.667 76.7432 163.723 76.613C163.732 76.6019 163.732 76.5871 163.704 76.5871H163.223C163.206 76.5871 163.206 76.6019 163.206 76.613C163.259 76.7438 163.28 76.8854 163.267 77.026V78.1797C163.28 78.319 163.259 78.4594 163.206 78.5889C163.197 78.6019 163.197 78.6186 163.223 78.6186H163.71C163.728 78.6186 163.728 78.6019 163.728 78.5889ZM164.923 78.1797C164.909 78.3192 164.93 78.46 164.986 78.5889C164.997 78.6019 164.997 78.6186 164.967 78.6186H164.48C164.454 78.6186 164.454 78.6019 164.463 78.5889C164.516 78.4594 164.537 78.319 164.524 78.1797V77.026C164.537 76.8854 164.516 76.7438 164.463 76.613C164.454 76.6019 164.454 76.5871 164.48 76.5871H164.967C164.997 76.5871 164.997 76.6019 164.986 76.613C164.931 76.7434 164.909 76.8852 164.923 77.026V78.1797ZM166.245 78.5889C166.188 78.4605 166.166 78.3194 166.18 78.1797L166.184 77.026C166.17 76.8851 166.192 76.7429 166.249 76.613C166.258 76.6019 166.258 76.5871 166.228 76.5871H165.741C165.715 76.5871 165.715 76.6019 165.726 76.613C165.777 76.7444 165.798 76.8856 165.786 77.026V78.1797C165.798 78.3188 165.777 78.4589 165.726 78.5889C165.715 78.6019 165.715 78.6186 165.741 78.6186H166.224C166.245 78.6186 166.245 78.6019 166.245 78.5889ZM166.445 70.8241L166.075 69.6685C166.075 69.6685 161.089 68.4611 156.2 73.1666C151.312 68.4611 146.328 69.6685 146.328 69.6685L145.958 70.8241C151.395 69.3815 156.2 73.1666 156.2 73.1666C156.2 73.1666 161.008 69.3815 166.445 70.8241ZM167.747 72.3074C167.747 72.3074 161.891 69.9796 156.2 74.0074C150.511 69.9796 144.656 72.3074 144.656 72.3074L142.602 76.4815C146.061 74.2542 150.204 73.3409 154.278 73.9074L156.2 74.463L158.124 73.9074C162.197 73.3449 166.336 74.2607 169.791 76.4889L167.747 72.3074ZM156.2 74.0074C156.2 74.0074 156.289 73.9574 156.456 73.8759L156.2 74.0074Z" fill="#CCCCCC"/>
</svg>
